<svg xmlns="http://www.w3.org/2000/svg" width="50.193" height="57" viewBox="0 0 50.193 57">
  <path id="css3-plain" d="M8.76,1l4.568,51.285L33.826,58l20.555-5.736L58.953,1H8.76Zm40.7,11.75L47.942,29.834l0,.092-.006.212v0L46.86,42.083l-.119,1.061L33.856,46.707h0l-.01.009L20.984,43.133l-.871-9.876h6.307l.448,5.022,6.99,1.895,0,0h0l7.016-1.921.741-8.178H26.947l-.126-1.382-.287-3.239-.15-1.739H42.171l.574-6.36H18.7l-.126-1.382-.286-3.24-.151-1.739H49.613l-.15,1.755Z" transform="translate(-8.76 -1)" fill="#006d77"/>
</svg>
