<svg xmlns="http://www.w3.org/2000/svg" width="57.001" height="57" viewBox="0 0 57.001 57">
  <g id="git" transform="translate(-0.001)">
    <path id="Tracé_8" data-name="Tracé 8" d="M55.927,25.961,31.039,1.075a3.671,3.671,0,0,0-5.191,0L20.68,6.243,27.236,12.8a4.359,4.359,0,0,1,5.521,5.558l6.318,6.318a4.363,4.363,0,1,1-2.616,2.463l-5.892-5.892V36.751a4.359,4.359,0,1,1-3.592-.127V20.974a4.315,4.315,0,0,1-1.43-.953,4.366,4.366,0,0,1-.941-4.775L18.141,8.782,1.076,25.846a3.672,3.672,0,0,0,0,5.193L25.964,55.925a3.671,3.671,0,0,0,5.192,0L55.927,31.154a3.673,3.673,0,0,0,0-5.193" fill="#006d77"/>
  </g>
</svg>
