<svg xmlns="http://www.w3.org/2000/svg" width="58.415" height="57" viewBox="0 0 58.415 57">
  <path id="github" d="M31.208,2a29.229,29.229,0,0,0-9.23,56.955c1.46.234,1.928-.672,1.928-1.46V52.558c-8.09,1.752-9.814-3.914-9.814-3.914-1.344-3.388-3.242-4.294-3.242-4.294-2.658-1.811.2-1.752.2-1.752a6.141,6.141,0,0,1,4.469,3.008c2.541,4.44,6.835,3.125,8.5,2.424a6.307,6.307,0,0,1,1.84-3.914c-6.484-.73-13.289-3.242-13.289-14.37a11.312,11.312,0,0,1,3.008-7.915,10.446,10.446,0,0,1,.292-7.711s2.453-.789,8.032,2.979a28.141,28.141,0,0,1,14.6,0c5.579-3.768,8.032-2.979,8.032-2.979a10.446,10.446,0,0,1,.292,7.711,11.312,11.312,0,0,1,3.008,7.915c0,11.157-6.835,13.611-13.348,14.341a6.968,6.968,0,0,1,2.015,5.4v8c0,.789.467,1.723,1.957,1.46A29.234,29.234,0,0,0,31.208,2Z" transform="translate(-2 -2)" fill="#83c5be"/>
</svg>
