<svg id="language" xmlns="http://www.w3.org/2000/svg" width="57" height="57" viewBox="0 0 57 57">
  <path id="Tracé_9" data-name="Tracé 9" d="M0,0H57V57H0Z" fill="none"/>
  <path id="Tracé_10" data-name="Tracé 10" d="M25.726,2A23.75,23.75,0,1,0,49.5,25.75,23.738,23.738,0,0,0,25.726,2ZM42.185,16.25H35.179A37.167,37.167,0,0,0,31.9,7.8,19.07,19.07,0,0,1,42.185,16.25ZM25.75,6.845a33.456,33.456,0,0,1,4.536,9.4H21.214A33.456,33.456,0,0,1,25.75,6.845ZM7.368,30.5a19.574,19.574,0,0,1-.618-4.75A19.574,19.574,0,0,1,7.368,21h8.027a39.224,39.224,0,0,0-.332,4.75,39.224,39.224,0,0,0,.332,4.75Zm1.948,4.75h7.006A37.167,37.167,0,0,0,19.6,43.705,18.969,18.969,0,0,1,9.315,35.25Zm7.006-19H9.315A18.969,18.969,0,0,1,19.6,7.8a37.167,37.167,0,0,0-3.278,8.455Zm9.429,28.4a33.456,33.456,0,0,1-4.536-9.4h9.073A33.456,33.456,0,0,1,25.75,44.655ZM31.308,30.5H20.193a34.942,34.942,0,0,1-.38-4.75,34.639,34.639,0,0,1,.38-4.75H31.308a34.639,34.639,0,0,1,.38,4.75A34.943,34.943,0,0,1,31.308,30.5Zm.594,13.2a37.167,37.167,0,0,0,3.278-8.455h7.006A19.07,19.07,0,0,1,31.9,43.705Zm4.2-13.2a39.224,39.224,0,0,0,.332-4.75A39.224,39.224,0,0,0,36.105,21h8.028a19.574,19.574,0,0,1,.618,4.75,19.574,19.574,0,0,1-.618,4.75Z" transform="translate(2.75 2.75)" fill="#006d77"/>
</svg>
