<svg xmlns="http://www.w3.org/2000/svg" width="70.742" height="53.001" viewBox="0 0 70.742 53.001">
  <path id="file-type-sass" d="M62.908,36A14.652,14.652,0,0,0,56.5,37.481a13.5,13.5,0,0,1-1.435-3.319,8.918,8.918,0,0,1-.129-2.779,24.786,24.786,0,0,1,.839-3.011c-.013-.129-.154-.738-1.576-.758s-2.648.27-2.779.647a15.59,15.59,0,0,0-.594,2.107A49.731,49.731,0,0,1,46.5,38.688a8.049,8.049,0,0,1-1.112-5.219,24.784,24.784,0,0,1,.839-3.011c-.013-.129-.154-.738-1.576-.758s-2.648.27-2.779.647-.3,1.263-.594,2.107S37.529,41.007,36.625,43c-.465,1.01-.867,1.834-1.149,2.39h0a.588.588,0,0,1-.051.1c-.253.477-.387.738-.387.738v.013c-.195.349-.4.672-.505.672a4.322,4.322,0,0,1,.025-2.2c.505-2.675,1.743-6.834,1.73-6.978,0-.078.232-.8-.8-1.175a1.283,1.283,0,0,0-1.46.253c-.091,0-.154.22-.154.22S35,32.36,31.729,32.36a9.739,9.739,0,0,0-6.252,4.252c-.879.477-2.751,1.5-4.754,2.6-.758.427-1.551.854-2.286,1.263-.051-.051-.1-.116-.154-.167C14.3,36.066,6.989,33.075,7.3,27.4c.116-2.066.826-7.493,14.043-14.084,10.878-5.361,19.536-3.875,21.034-.581,2.145,4.7-4.638,13.437-15.877,14.7a8.465,8.465,0,0,1-7.106-1.8c-.594-.647-.685-.685-.9-.556-.361.195-.129.776,0,1.112a6.634,6.634,0,0,0,4.057,3.191A21.6,21.6,0,0,0,35.73,28.085c6.821-2.635,12.126-9.961,10.57-16.1-1.564-6.227-11.9-8.281-21.68-4.8A49.262,49.262,0,0,0,7.959,16.745C2.571,21.785,1.719,26.163,2.068,28,3.331,34.512,12.3,38.749,15.892,41.894c-.182.1-.349.195-.49.27-1.8.892-8.642,4.471-10.358,8.256-1.938,4.295.311,7.364,1.8,7.778a11.05,11.05,0,0,0,11.9-4.82,11.937,11.937,0,0,0,1.069-11,.27.27,0,0,0-.051-.078l1.407-.826c.917-.543,1.821-1.046,2.6-1.46a17.027,17.027,0,0,0-.917,4.7,9.817,9.817,0,0,0,2.107,6.821,2.327,2.327,0,0,0,1.705.556c1.516,0,2.21-1.263,2.971-2.764.93-1.834,1.768-3.966,1.768-3.966s-1.046,5.762,1.8,5.762c1.033,0,2.079-1.344,2.546-2.021v.013s.025-.038.078-.129l.167-.27V48.7c.414-.723,1.344-2.365,2.726-5.09,1.784-3.514,3.5-7.907,3.5-7.907a22.452,22.452,0,0,0,.685,2.855,26.888,26.888,0,0,0,1.473,3.307c-.414.581-.672.9-.672.9l.013.013c-.336.44-.7.917-1.1,1.382a41.18,41.18,0,0,0-3.319,4.161,1.129,1.129,0,0,0,.311,1.516,2.819,2.819,0,0,0,1.73.285,7.95,7.95,0,0,0,2.6-.594,8.715,8.715,0,0,0,2.236-1.175,5,5,0,0,0,2.145-4.406,8.9,8.9,0,0,0-.813-3.115c.129-.182.253-.361.374-.543A59.184,59.184,0,0,0,51.744,33.6a22.452,22.452,0,0,0,.685,2.855,19.124,19.124,0,0,0,1.263,2.842A12.28,12.28,0,0,0,49.91,44.15c-.813,2.352-.182,3.41,1.01,3.655a3.6,3.6,0,0,0,1.887-.387,8.589,8.589,0,0,0,2.39-1.228,5.371,5.371,0,0,0,2.635-4.368,8.256,8.256,0,0,0-.594-2.584,13.531,13.531,0,0,1,6.861-.788c6.149.723,7.364,4.56,7.132,6.177a4.087,4.087,0,0,1-1.95,2.764c-.427.27-.568.361-.531.556.051.285.253.27.619.22A4.8,4.8,0,0,0,72.735,43.9c.195-3.789-3.423-7.945-9.82-7.907ZM15.465,51.981c-2.041,2.223-4.883,3.062-6.111,2.352-1.319-.758-.8-4.042,1.705-6.4a32.548,32.548,0,0,1,4.8-3.58c.3-.182.738-.44,1.263-.758l.141-.078h0l.311-.195a8.824,8.824,0,0,1-2.109,8.655ZM30.322,41.876c-.71,1.73-2.2,6.164-3.1,5.916-.776-.207-1.263-3.567-.154-6.887a15.645,15.645,0,0,1,2.415-4.431c1.112-1.24,2.339-1.655,2.635-1.149a22.893,22.893,0,0,1-1.8,6.551Zm12.26,5.866c-.3.154-.581.253-.71.182-.091-.051.129-.253.129-.253s1.538-1.655,2.145-2.4c.349-.44.758-.955,1.2-1.538V43.9c0,1.976-1.912,3.307-2.764,3.85Zm9.458-2.157c-.22-.154-.182-.672.556-2.286A8.609,8.609,0,0,1,54.7,40.585a3.658,3.658,0,0,1,.207,1.19,3.908,3.908,0,0,1-2.867,3.812Z" transform="translate(-2 -5.501)" fill="#83c5be"/>
</svg>
